<svg width="116" height="116" viewBox="0 0 116 116" fill="none" xmlns="http://www.w3.org/2000/svg">
<path d="M23.2 84.0996V64.7507L46.4464 78.1023C49.9622 80.1214 53.9457 81.1838 58 81.1838C62.0543 81.1838 66.0378 80.1214 69.5536 78.1023L92.8 64.7507V84.0996C92.8007 84.4806 92.7262 84.8581 92.5809 85.2104C92.4356 85.5627 92.2223 85.8829 91.9532 86.1528L91.9416 86.1585L91.93 86.1759L91.8894 86.2108L91.756 86.3383L91.292 86.7676C90.886 87.1272 90.306 87.6202 89.5462 88.206C87.4629 89.8055 85.2492 91.2276 82.9284 92.4574C75.2518 96.5272 66.6886 98.6371 58 98.5996C49.3109 98.6353 40.7476 96.5234 33.0716 92.4516C30.7527 91.2216 28.541 89.7995 26.4596 88.2001C25.6945 87.6099 24.9552 86.9868 24.244 86.3326L24.1106 86.2049C23.8271 85.9317 23.6006 85.6049 23.4443 85.2435C23.2879 84.8821 23.2049 84.4933 23.2 84.0996ZM108.744 48.9109L66.6652 73.068C64.0284 74.5822 61.0407 75.3791 58 75.3791C54.9593 75.3791 51.9716 74.5822 49.3348 73.068L11.6 51.4049V78.2938C11.6 79.0629 11.2945 79.8005 10.7506 80.3444C10.2068 80.8882 9.46913 81.1937 8.7 81.1937C7.93088 81.1937 7.19325 80.8882 6.64939 80.3444C6.10554 79.8005 5.8 79.0629 5.8 78.2938V46.3996C5.79971 45.8767 5.94079 45.3635 6.20829 44.9142C6.4758 44.465 6.85978 44.0964 7.3196 43.8476L49.3348 19.7196C51.9711 18.2036 54.9589 17.4058 58 17.4058C61.0411 17.4058 64.0289 18.2036 66.6652 19.7196L108.744 43.8824C109.186 44.1365 109.554 44.5028 109.809 44.9442C110.065 45.3856 110.199 45.8866 110.199 46.3967C110.199 46.9067 110.065 47.4077 109.809 47.8491C109.554 48.2905 109.186 48.6568 108.744 48.9109Z" fill="#A200B0"/>
</svg>
