<svg width="116" height="116" viewBox="0 0 116 116" fill="none" xmlns="http://www.w3.org/2000/svg">
<path d="M106.743 87.7838L91.7034 16.2807C91.46 15.1117 90.9878 14.0024 90.3143 13.0164C89.6407 12.0305 88.7789 11.1874 87.7784 10.5355C86.7779 9.8837 85.6585 9.43602 84.4845 9.21821C83.3104 9.0004 82.1049 9.01675 80.9372 9.26632L59.7264 13.8248C57.7763 14.2476 56.0226 15.3078 54.742 16.838C53.9207 15.5645 52.7931 14.5173 51.4624 13.7922C50.1317 13.0671 48.6404 12.6872 47.125 12.6874H25.375C22.9715 12.6874 20.6664 13.6422 18.9668 15.3418C17.2673 17.0413 16.3125 19.3464 16.3125 21.7499V94.2499C16.3125 96.6534 17.2673 98.9585 18.9668 100.658C20.6664 102.358 22.9715 103.312 25.375 103.312H47.125C49.5285 103.312 51.8336 102.358 53.5332 100.658C55.2327 98.9585 56.1875 96.6534 56.1875 94.2499V40.8944L67.7966 96.0941C68.2197 98.1299 69.33 99.9583 70.9413 101.273C72.5526 102.587 74.5668 103.307 76.6461 103.312C77.2904 103.312 77.9328 103.244 78.5628 103.109L99.7736 98.5501C102.12 98.0371 104.169 96.618 105.474 94.6015C106.78 92.5851 107.235 90.1347 106.743 87.7838ZM67.1486 40.1695L84.8205 36.3723L85.9669 41.8098L68.295 45.6069L67.1486 40.1695ZM70.5289 56.2554L88.2008 52.4582L92.3514 72.2054L74.6795 76.0026L70.5289 56.2554ZM81.4311 20.2818L82.5775 25.7193L64.9056 29.5165L63.7592 24.079L81.4311 20.2818ZM27.1875 39.8749H45.3125V76.1249H27.1875V39.8749ZM45.3125 23.5624V28.9999H27.1875V23.5624H45.3125ZM27.1875 92.4374V86.9999H45.3125V92.4374H27.1875ZM78.0689 92.093L76.9225 86.6555L94.5944 82.8584L95.7408 88.2959L78.0689 92.093Z" fill="#A200B0"/>
</svg>
